<svg width="146" height="27" viewBox="0 0 146 27" fill="none" xmlns="http://www.w3.org/2000/svg">
<path d="M0.268005 1.14803H7.40801C9.29334 1.14803 10.768 1.64269 11.832 2.63203C12.9147 3.62136 13.456 4.90936 13.456 6.49603C13.456 7.50403 13.1853 8.40003 12.644 9.18403C12.1027 9.94936 11.412 10.472 10.572 10.752C11.58 10.9947 12.4107 11.5454 13.064 12.404C13.736 13.244 14.072 14.2614 14.072 15.456C14.072 17.08 13.512 18.4147 12.392 19.46C11.272 20.4867 9.78801 21 7.94001 21H0.268005V1.14803ZM4.07601 9.35203H6.82001C7.69734 9.35203 8.38801 9.12803 8.89201 8.68003C9.39601 8.23203 9.64801 7.62536 9.64801 6.86003C9.64801 6.09469 9.39601 5.49736 8.89201 5.06803C8.40667 4.62003 7.70667 4.39603 6.79201 4.39603H4.07601V9.35203ZM4.07601 17.78H7.21201C8.14534 17.78 8.87334 17.556 9.39601 17.108C9.93734 16.6414 10.208 16.0067 10.208 15.204C10.208 14.4014 9.94667 13.7574 9.42401 13.272C8.92001 12.7867 8.20134 12.544 7.26801 12.544H4.07601V17.78Z" fill="black"/>
<path d="M25.4232 7.16803V10.92C25.0498 10.8454 24.6765 10.808 24.3032 10.808C23.2392 10.808 22.3805 11.116 21.7272 11.732C21.0738 12.3294 20.7472 13.3187 20.7472 14.7V21H17.0232V7.22403H20.6352V9.26803C21.3072 7.83069 22.6138 7.11203 24.5552 7.11203C24.7605 7.11203 25.0498 7.13069 25.4232 7.16803Z" fill="black"/>
<path d="M27.2847 17.248C27.2847 16.072 27.6674 15.1294 28.4327 14.42C29.1981 13.7107 30.1874 13.2627 31.4007 13.076L34.7887 12.572C35.4794 12.4787 35.8247 12.152 35.8247 11.592C35.8247 11.0694 35.6194 10.64 35.2087 10.304C34.8167 9.96803 34.2474 9.80003 33.5007 9.80003C32.7167 9.80003 32.0914 10.0147 31.6247 10.444C31.1767 10.8734 30.9247 11.4054 30.8687 12.04L27.5647 11.34C27.6954 10.1454 28.2834 9.09069 29.3287 8.17603C30.3741 7.26136 31.7554 6.80403 33.4727 6.80403C35.5261 6.80403 37.0381 7.29869 38.0087 8.28803C38.9794 9.25869 39.4647 10.5094 39.4647 12.04V18.816C39.4647 19.6374 39.5207 20.3654 39.6327 21H36.2167C36.1234 20.5894 36.0767 20.0387 36.0767 19.348C35.1994 20.7107 33.8461 21.392 32.0167 21.392C30.5981 21.392 29.4501 20.9814 28.5727 20.16C27.7141 19.3387 27.2847 18.368 27.2847 17.248ZM32.8007 18.62C33.6781 18.62 34.3967 18.3774 34.9567 17.892C35.5354 17.388 35.8247 16.5667 35.8247 15.428V14.812L32.7167 15.288C31.5781 15.456 31.0087 16.0347 31.0087 17.024C31.0087 17.472 31.1674 17.8547 31.4847 18.172C31.8021 18.4707 32.2407 18.62 32.8007 18.62Z" fill="black"/>
<path d="M46.9425 13.076V21H43.2185V7.22403H46.8305V8.93203C47.2225 8.26003 47.7825 7.74669 48.5105 7.39203C49.2385 7.03736 50.0038 6.86003 50.8065 6.86003C52.4305 6.86003 53.6625 7.37336 54.5025 8.40003C55.3611 9.40803 55.7905 10.7147 55.7905 12.32V21H52.0665V12.964C52.0665 12.1427 51.8518 11.48 51.4225 10.976C51.0118 10.472 50.3771 10.22 49.5185 10.22C48.7345 10.22 48.1091 10.4907 47.6425 11.032C47.1758 11.5734 46.9425 12.2547 46.9425 13.076Z" fill="black"/>
<path d="M72.702 0.728027V18.508C72.702 19.4227 72.7394 20.2534 72.814 21H69.258C69.1647 20.5334 69.118 20.0014 69.118 19.404C68.8007 19.9827 68.2967 20.4494 67.606 20.804C66.934 21.1587 66.15 21.336 65.254 21.336C63.294 21.336 61.6794 20.6547 60.41 19.292C59.1594 17.9107 58.534 16.1747 58.534 14.084C58.534 12.0494 59.15 10.3414 60.382 8.96003C61.6327 7.57869 63.2194 6.88803 65.142 6.88803C67.1207 6.88803 68.418 7.45736 69.034 8.59603V0.728027H72.702ZM62.286 14.084C62.286 15.2974 62.6034 16.2587 63.238 16.968C63.8727 17.6587 64.694 18.004 65.702 18.004C66.6914 18.004 67.5034 17.6494 68.138 16.94C68.7727 16.2307 69.09 15.2694 69.09 14.056C69.09 12.8614 68.7727 11.928 68.138 11.256C67.5034 10.5654 66.6914 10.22 65.702 10.22C64.7127 10.22 63.8914 10.5654 63.238 11.256C62.6034 11.9467 62.286 12.8894 62.286 14.084Z" fill="black"/>
<path d="M96.6519 21H83.9399V1.14803H87.8039V17.304H96.6519V21Z" fill="black"/>
<path d="M103.051 16.996C103.742 17.6867 104.573 18.032 105.543 18.032C106.514 18.032 107.335 17.6867 108.007 16.996C108.698 16.3054 109.043 15.344 109.043 14.112C109.043 12.88 108.698 11.9187 108.007 11.228C107.335 10.5374 106.514 10.192 105.543 10.192C104.573 10.192 103.742 10.5374 103.051 11.228C102.379 11.9187 102.043 12.88 102.043 14.112C102.043 15.344 102.379 16.3054 103.051 16.996ZM100.363 8.87603C101.745 7.49469 103.471 6.80403 105.543 6.80403C107.615 6.80403 109.333 7.49469 110.695 8.87603C112.077 10.2574 112.767 12.0027 112.767 14.112C112.767 16.2214 112.077 17.9667 110.695 19.348C109.333 20.7294 107.615 21.42 105.543 21.42C103.471 21.42 101.745 20.7294 100.363 19.348C99.0005 17.9667 98.3192 16.2214 98.3192 14.112C98.3192 12.0027 99.0005 10.2574 100.363 8.87603Z" fill="black"/>
<path d="M114.727 21.756L118.087 20.86C118.217 21.6254 118.572 22.2507 119.151 22.736C119.729 23.2214 120.448 23.464 121.307 23.464C123.752 23.464 124.975 22.1854 124.975 19.628V18.62C124.657 19.124 124.172 19.544 123.519 19.88C122.865 20.216 122.072 20.384 121.139 20.384C119.309 20.384 117.779 19.7494 116.547 18.48C115.333 17.2107 114.727 15.6147 114.727 13.692C114.727 11.8254 115.333 10.2387 116.547 8.93203C117.76 7.62536 119.291 6.97203 121.139 6.97203C122.147 6.97203 122.987 7.15869 123.659 7.53203C124.331 7.88669 124.797 8.32536 125.059 8.84803V7.22403H128.643V19.516C128.643 21.588 128.045 23.3054 126.851 24.668C125.656 26.0494 123.845 26.74 121.419 26.74C119.608 26.74 118.087 26.2547 116.855 25.284C115.641 24.3134 114.932 23.1374 114.727 21.756ZM121.783 17.192C122.735 17.192 123.509 16.8747 124.107 16.24C124.723 15.6054 125.031 14.756 125.031 13.692C125.031 12.6467 124.713 11.8067 124.079 11.172C123.463 10.5374 122.697 10.22 121.783 10.22C120.831 10.22 120.037 10.5374 119.403 11.172C118.787 11.8067 118.479 12.6467 118.479 13.692C118.479 14.756 118.787 15.6054 119.403 16.24C120.019 16.8747 120.812 17.192 121.783 17.192Z" fill="black"/>
<path d="M136.11 16.996C136.8 17.6867 137.631 18.032 138.602 18.032C139.572 18.032 140.394 17.6867 141.066 16.996C141.756 16.3054 142.102 15.344 142.102 14.112C142.102 12.88 141.756 11.9187 141.066 11.228C140.394 10.5374 139.572 10.192 138.602 10.192C137.631 10.192 136.8 10.5374 136.11 11.228C135.438 11.9187 135.102 12.88 135.102 14.112C135.102 15.344 135.438 16.3054 136.11 16.996ZM133.422 8.87603C134.803 7.49469 136.53 6.80403 138.602 6.80403C140.674 6.80403 142.391 7.49469 143.754 8.87603C145.135 10.2574 145.826 12.0027 145.826 14.112C145.826 16.2214 145.135 17.9667 143.754 19.348C142.391 20.7294 140.674 21.42 138.602 21.42C136.53 21.42 134.803 20.7294 133.422 19.348C132.059 17.9667 131.378 16.2214 131.378 14.112C131.378 12.0027 132.059 10.2574 133.422 8.87603Z" fill="black"/>
</svg>
